# xmcd
#
# Track frame offsets:
#	150
#	29947
#	65756
#	97919
#	138668
#	184144
#	253649
#	273311
#	291131
#
# Disc length: 4107 seconds
#
# Revision: 1
# Processed by: cddbd v1.5.2PL0 Copyright (c) Steve Scherf et al.
# Submitted via: audiograbber 1.83.01
#
DISCID=8e100909
DTITLE=Richard Wagner - Die Meistersinger von Nürnberg, Wien 1951 - CD3
DYEAR=1900
DGENRE=
TTITLE0=Dritter Akt - Vorspiel
TTITLE1=Dritter Akt/Szene 1 - Gleich, Meister! Hier!
TTITLE2=Dritter Akt/Szene 1 - Wahn! Wahn!
TTITLE3=Dritter Akt/Szene 2 - Grüß Gott, mein Junker!
TTITLE4=Dritter Akt/Szene 2 - Morgenlich leuchtend in rosigem Schein
TTITLE5=Dritter Akt/Szene 3 - Ein Werbelied!
TTITLE6=Dritter Akt/Szene 4 - Sieh Evchen! Dacht ich doch wo sie blieb!
TTITLE7=Dritter Akt/Szene 4 - Weilten die Sterne im lieblichen Tanz? 
TTITLE8=Dritter Akt/Szene 4 - O Sachs! Mein Freund!
EXTD=
EXTT0=
EXTT1=
EXTT2=
EXTT3=
EXTT4=
EXTT5=
EXTT6=
EXTT7=
EXTT8=
PLAYORDER=
